<svg version="1.1" preserveAspectRatio="none" xmlns="http://www.w3.org/2000/svg" width="500" height="500" viewBox="0 0 500 500"><rect width="100%" height="100%" fill="#0E0E0E" fill-opacity="1"/><svg viewBox="504.4259 746.8596 398.0023 200" width="333" height="167.33571640163888" x="83.5px" y="166.3321px" xmlns="http://www.w3.org/2000/svg" xmlns:xlink="http://www.w3.org/1999/xlink" preserveAspectRatio="none"><defs></defs><style>.background {fill:#0E0E0E;fill-opacity:1;}.icon3 {fill:#DFDFDF;fill-opacity:1;}.icon3-str {stroke:#DFDFDF;stroke-opacity:1;}.shapeStroke-str {stroke:#EBE7D9;stroke-opacity:1;}</style><g opacity="1" transform="rotate(0 504.4259 747.8596)">
<svg width="398.0023" height="198" x="504.4259" y="747.8596" version="1.1" preserveAspectRatio="none" viewBox="0 0 398.0023 198">
  <defs><rect x="0" y="0" width="398.0023" height="198" rx="0px" ry="0px" id="id-MGa_3CcrI1729797590242"></rect></defs><use class="icon3 shapeStroke-str" style="stroke-width:0;" xlink:href="#id-MGa_3CcrI1729797590242"></use>
</svg>
</g><g opacity="1" transform="rotate(0 504.4259 746.8596)">
<svg width="398.0023" height="200" x="504.4259" y="746.8596" version="1.1" preserveAspectRatio="none" viewBox="2.8 -28 55.72 28">
  <g transform="matrix(1 0 0 1 0 0)" class="background"><path id="id-D6z1nYkh2" d="M15.60-28Q19.40-28 22.20-26.74Q25-25.48 26.52-23.14Q28.04-20.80 28.04-17.64L28.04-17.64Q28.04-14.48 26.52-12.16Q25-9.84 22.20-8.58Q19.40-7.32 15.60-7.32L15.60-7.32L10.72-7.32L10.72 0L2.80 0L2.80-28L15.60-28ZM15.12-13.56Q17.56-13.56 18.80-14.62Q20.04-15.68 20.04-17.64L20.04-17.64Q20.04-19.60 18.80-20.68Q17.56-21.76 15.12-21.76L15.12-21.76L10.72-21.76L10.72-13.56L15.12-13.56Z M50.76-28L58.52-28L58.52 0L52 0L39.64-14.92L39.64 0L31.88 0L31.88-28L38.40-28L50.76-13.08L50.76-28Z"/></g>
</svg>
</g></svg></svg>